<?xml version="1.0" encoding="utf-8"?>
<!-- Generator: Adobe Illustrator 19.1.0, SVG Export Plug-In . SVG Version: 6.00 Build 0)  -->
<svg version="1.1" id="Capa_1" xmlns="http://www.w3.org/2000/svg" xmlns:xlink="http://www.w3.org/1999/xlink" x="0px" y="0px"
	 viewBox="12 -12 1024 1024" style="enable-background:new 12 -12 1024 1024;" xml:space="preserve">
<style type="text/css">
	.st0{fill:#FFFFFF;}
</style>
<g>
	<path class="st0" d="M944.3,478.7L784.8,319.3c-11.8-11.8-30.8-11.8-42.5-0.1c-11.8,11.7-11.9,30.7-0.3,42.6L848.4,470H420.2
		c-16.6,0-30.1,13.4-30.1,30s13.5,30,30.1,30h430l-108,108.1c-11.8,11.8-11.8,30.9,0,42.6c5.9,5.9,13.6,8.8,21.3,8.8
		s15.4-2.9,21.3-8.8l159.4-159.4c5.6-5.7,8.8-13.3,8.8-21.3C953.1,492,949.9,484.4,944.3,478.7z"/>
	<path class="st0" d="M710.9,775.6c-16.6,0-30,13.5-30,30.1V952h-526V48h526v146.4c0,16.6,13.4,30.1,30,30.1c16.6,0,30-13.5,30-30.1
		V17.9c0-16.6-13.7-29.9-30.3-29.9H125c-16.6,0-30.1,13.3-30.1,29.9v964.2c0,16.6,13.5,29.9,30.1,29.9h585.6
		c16.6,0,30.3-13.2,30.3-29.9V805.7C740.9,789,727.6,775.6,710.9,775.6z"/>
</g>
</svg>
